<?xml version="1.0" encoding="UTF-8"?>
<!DOCTYPE svg PUBLIC "-//W3C//DTD SVG 1.1//EN" "http://www.w3.org/Graphics/SVG/1.1/DTD/svg11.dtd">
<svg xmlns="http://www.w3.org/2000/svg" version="1.1" width="512px" height="512px" style="shape-rendering:geometricPrecision; text-rendering:geometricPrecision; image-rendering:optimizeQuality; fill-rule:evenodd; clip-rule:evenodd" xmlns:xlink="http://www.w3.org/1999/xlink">
<g><path style="opacity:0.95" fill="#f5f6f5" d="M 251.5,-0.5 C 254.167,-0.5 256.833,-0.5 259.5,-0.5C 260.688,0.363622 261.855,1.36362 263,2.5C 314,101.833 365,201.167 416,300.5C 416.652,303.594 416.318,306.594 415,309.5C 397.403,349.459 379.903,389.459 362.5,429.5C 373.485,430.332 384.485,430.832 395.5,431C 397.286,431.785 398.786,432.951 400,434.5C 401.625,457.45 401.958,480.45 401,503.5C 400.549,506.778 399.049,509.444 396.5,511.5C 302.5,511.5 208.5,511.5 114.5,511.5C 111.951,509.444 110.451,506.778 110,503.5C 109.042,480.45 109.375,457.45 111,434.5C 112.214,432.951 113.714,431.785 115.5,431C 126.515,430.832 137.515,430.332 148.5,429.5C 131.275,389.383 113.775,349.383 96,309.5C 94.6815,306.594 94.3482,303.594 95,300.5C 146,201.167 197,101.833 248,2.5C 249.145,1.36362 250.312,0.363622 251.5,-0.5 Z M 245.5,47.5 C 246.831,106.335 246.831,165.335 245.5,224.5C 221.854,232.772 211.687,249.438 215,274.5C 221.018,294.597 234.518,305.263 255.5,306.5C 276.482,305.263 289.982,294.597 296,274.5C 299.307,249.425 289.141,232.758 265.5,224.5C 264.333,165.503 264.167,106.503 265,47.5C 309.224,132.781 353.057,218.281 396.5,304C 378.433,346.132 360.1,388.132 341.5,430C 284.167,430.667 226.833,430.667 169.5,430C 150.9,388.132 132.567,346.132 114.5,304C 158.568,218.697 202.235,133.197 245.5,47.5 Z M 249.5,242.5 C 268.129,241.299 277.629,249.966 278,268.5C 272.613,285.61 261.446,291.11 244.5,285C 229.844,273.41 228.844,260.743 241.5,247C 244.099,245.205 246.766,243.705 249.5,242.5 Z M 128.5,448.5 C 213.167,448.5 297.833,448.5 382.5,448.5C 382.5,463.5 382.5,478.5 382.5,493.5C 297.833,493.5 213.167,493.5 128.5,493.5C 128.5,478.5 128.5,463.5 128.5,448.5 Z"/></g>
</svg>
