<?xml version="1.0" encoding="UTF-8"?>
<!DOCTYPE svg PUBLIC "-//W3C//DTD SVG 1.1//EN" "http://www.w3.org/Graphics/SVG/1.1/DTD/svg11.dtd">
<svg xmlns="http://www.w3.org/2000/svg" version="1.1" width="512px" height="512px" style="shape-rendering:geometricPrecision; text-rendering:geometricPrecision; image-rendering:optimizeQuality; fill-rule:evenodd; clip-rule:evenodd" xmlns:xlink="http://www.w3.org/1999/xlink">
<g><path style="opacity:0.937" fill="#f5f6f5" d="M 142.5,-0.5 C 217.833,-0.5 293.167,-0.5 368.5,-0.5C 389.152,4.6527 401.985,17.6527 407,38.5C 407.667,182.833 407.667,327.167 407,471.5C 401.763,492.235 388.93,505.569 368.5,511.5C 293.167,511.5 217.833,511.5 142.5,511.5C 121.848,506.347 109.015,493.347 104,472.5C 103.333,327.833 103.333,183.167 104,38.5C 109.015,17.6527 121.848,4.6527 142.5,-0.5 Z M 152.5,11.5 C 162.855,11.1681 173.188,11.5014 183.5,12.5C 187.839,24.0081 192.839,35.1747 198.5,46C 236.5,46.6667 274.5,46.6667 312.5,46C 318.161,35.1747 323.161,24.0081 327.5,12.5C 340.521,11.1728 353.521,11.3394 366.5,13C 381,16.8333 390.167,26 394,40.5C 394.5,171.833 394.667,303.166 394.5,434.5C 301.833,434.5 209.167,434.5 116.5,434.5C 116.333,303.166 116.5,171.833 117,40.5C 122.262,22.638 134.095,12.9713 152.5,11.5 Z M 197.5,12.5 C 235.998,11.3355 274.664,11.1688 313.5,12C 310.5,19 307.5,26 304.5,33C 271.833,33.6667 239.167,33.6667 206.5,33C 203.577,26.0411 200.577,19.2078 197.5,12.5 Z M 116.5,447.5 C 209.167,447.5 301.833,447.5 394.5,447.5C 398.781,469.228 391.448,485.395 372.5,496C 368.012,497.811 363.346,498.811 358.5,499C 289.833,499.667 221.167,499.667 152.5,499C 134.22,497.453 122.387,487.953 117,470.5C 116.5,462.841 116.334,455.174 116.5,447.5 Z"/></g>
<g><path style="opacity:0.912" fill="#f5f6f5" d="M 205.5,466.5 C 238.835,466.333 272.168,466.5 305.5,467C 310.398,470.522 310.731,474.522 306.5,479C 272.5,479.667 238.5,479.667 204.5,479C 200.334,474.368 200.667,470.202 205.5,466.5 Z"/></g>
</svg>
