<?xml version="1.0" encoding="UTF-8"?>
<!DOCTYPE svg PUBLIC "-//W3C//DTD SVG 1.1//EN" "http://www.w3.org/Graphics/SVG/1.1/DTD/svg11.dtd">
<svg xmlns="http://www.w3.org/2000/svg" version="1.1" width="512px" height="512px" style="shape-rendering:geometricPrecision; text-rendering:geometricPrecision; image-rendering:optimizeQuality; fill-rule:evenodd; clip-rule:evenodd" xmlns:xlink="http://www.w3.org/1999/xlink">
<g><path style="opacity:0.999" fill="#f5f6f5" d="M 511.5,79.5 C 511.5,196.833 511.5,314.167 511.5,431.5C 510.684,433.144 509.35,434.31 507.5,435C 339.5,435.667 171.5,435.667 3.5,435C 1.64977,434.31 0.316435,433.144 -0.5,431.5C -0.5,314.167 -0.5,196.833 -0.5,79.5C 0.316435,77.8564 1.64977,76.6897 3.5,76C 171.5,75.3333 339.5,75.3333 507.5,76C 509.35,76.6897 510.684,77.8564 511.5,79.5 Z M 15.5,91.5 C 31.5,91.5 47.5,91.5 63.5,91.5C 63.5,103.5 63.5,115.5 63.5,127.5C 47.5,127.5 31.5,127.5 15.5,127.5C 15.5,115.5 15.5,103.5 15.5,91.5 Z M 79.5,91.5 C 196.833,91.5 314.167,91.5 431.5,91.5C 431.5,200.833 431.5,310.167 431.5,419.5C 314.167,419.5 196.833,419.5 79.5,419.5C 79.5,310.167 79.5,200.833 79.5,91.5 Z M 447.5,91.5 C 463.5,91.5 479.5,91.5 495.5,91.5C 495.5,103.5 495.5,115.5 495.5,127.5C 479.5,127.5 463.5,127.5 447.5,127.5C 447.5,115.5 447.5,103.5 447.5,91.5 Z M 15.5,143.5 C 31.5,143.5 47.5,143.5 63.5,143.5C 63.5,154.167 63.5,164.833 63.5,175.5C 47.5,175.5 31.5,175.5 15.5,175.5C 15.5,164.833 15.5,154.167 15.5,143.5 Z M 447.5,143.5 C 463.5,143.5 479.5,143.5 495.5,143.5C 495.5,154.167 495.5,164.833 495.5,175.5C 479.5,175.5 463.5,175.5 447.5,175.5C 447.5,164.833 447.5,154.167 447.5,143.5 Z M 191.5,175.5 C 237.742,201.74 283.742,228.406 329.5,255.5C 283.796,282.366 237.963,309.033 192,335.5C 191.5,282.168 191.333,228.834 191.5,175.5 Z M 15.5,191.5 C 31.5,191.5 47.5,191.5 63.5,191.5C 63.5,202.167 63.5,212.833 63.5,223.5C 47.5,223.5 31.5,223.5 15.5,223.5C 15.5,212.833 15.5,202.167 15.5,191.5 Z M 447.5,191.5 C 463.5,191.5 479.5,191.5 495.5,191.5C 495.5,202.167 495.5,212.833 495.5,223.5C 479.5,223.5 463.5,223.5 447.5,223.5C 447.5,212.833 447.5,202.167 447.5,191.5 Z M 15.5,239.5 C 31.5,239.5 47.5,239.5 63.5,239.5C 63.5,250.167 63.5,260.833 63.5,271.5C 47.5,271.5 31.5,271.5 15.5,271.5C 15.5,260.833 15.5,250.167 15.5,239.5 Z M 447.5,239.5 C 463.5,239.5 479.5,239.5 495.5,239.5C 495.5,250.167 495.5,260.833 495.5,271.5C 479.5,271.5 463.5,271.5 447.5,271.5C 447.5,260.833 447.5,250.167 447.5,239.5 Z M 15.5,287.5 C 31.5,287.5 47.5,287.5 63.5,287.5C 63.5,298.167 63.5,308.833 63.5,319.5C 47.5,319.5 31.5,319.5 15.5,319.5C 15.5,308.833 15.5,298.167 15.5,287.5 Z M 447.5,287.5 C 463.5,287.5 479.5,287.5 495.5,287.5C 495.5,298.167 495.5,308.833 495.5,319.5C 479.5,319.5 463.5,319.5 447.5,319.5C 447.5,308.833 447.5,298.167 447.5,287.5 Z M 15.5,335.5 C 31.5,335.5 47.5,335.5 63.5,335.5C 63.5,346.167 63.5,356.833 63.5,367.5C 47.5,367.5 31.5,367.5 15.5,367.5C 15.5,356.833 15.5,346.167 15.5,335.5 Z M 447.5,335.5 C 463.5,335.5 479.5,335.5 495.5,335.5C 495.5,346.167 495.5,356.833 495.5,367.5C 479.5,367.5 463.5,367.5 447.5,367.5C 447.5,356.833 447.5,346.167 447.5,335.5 Z M 15.5,383.5 C 31.5,383.5 47.5,383.5 63.5,383.5C 63.5,395.5 63.5,407.5 63.5,419.5C 47.5,419.5 31.5,419.5 15.5,419.5C 15.5,407.5 15.5,395.5 15.5,383.5 Z M 447.5,383.5 C 463.5,383.5 479.5,383.5 495.5,383.5C 495.5,395.5 495.5,407.5 495.5,419.5C 479.5,419.5 463.5,419.5 447.5,419.5C 447.5,407.5 447.5,395.5 447.5,383.5 Z"/></g>
<g><path style="opacity:0.95" fill="#f5f6f5" d="M 180.5,152.5 C 185.597,152.543 190.264,154.043 194.5,157C 247.585,187.96 300.751,218.793 354,249.5C 356.832,255.446 355.665,260.279 350.5,264C 298.5,294 246.5,324 194.5,354C 191.04,356.065 187.374,357.565 183.5,358.5C 180.37,358.352 177.87,357.018 176,354.5C 175.333,288.5 175.333,222.5 176,156.5C 177.397,154.93 178.897,153.596 180.5,152.5 Z M 191.5,175.5 C 191.333,228.834 191.5,282.168 192,335.5C 237.963,309.033 283.796,282.366 329.5,255.5C 283.742,228.406 237.742,201.74 191.5,175.5 Z"/></g>
</svg>
