<?xml version="1.0" encoding="UTF-8"?>
<!DOCTYPE svg PUBLIC "-//W3C//DTD SVG 1.1//EN" "http://www.w3.org/Graphics/SVG/1.1/DTD/svg11.dtd">
<svg xmlns="http://www.w3.org/2000/svg" version="1.1" width="512px" height="512px" style="shape-rendering:geometricPrecision; text-rendering:geometricPrecision; image-rendering:optimizeQuality; fill-rule:evenodd; clip-rule:evenodd" xmlns:xlink="http://www.w3.org/1999/xlink">
<g><path style="opacity:0.965" fill="#f5f6f5" d="M 511.5,75.5 C 511.5,195.5 511.5,315.5 511.5,435.5C 505.24,460.259 489.573,475.425 464.5,481C 325.167,481.667 185.833,481.667 46.5,481C 21.427,475.425 5.76029,460.259 -0.5,435.5C -0.5,315.5 -0.5,195.5 -0.5,75.5C 5.76904,50.7323 21.4357,35.5657 46.5,30C 185.833,29.3333 325.167,29.3333 464.5,30C 489.564,35.5657 505.231,50.7323 511.5,75.5 Z M 48.5,47.5 C 186.5,47.3333 324.5,47.5 462.5,48C 478.226,52.0585 488.392,61.8918 493,77.5C 494.414,100.802 494.914,124.135 494.5,147.5C 335.167,147.5 175.833,147.5 16.5,147.5C 16.0865,124.135 16.5865,100.802 18,77.5C 22.7881,61.8774 32.9547,51.8774 48.5,47.5 Z M 58.5,88.5 C 67.817,87.9836 71.6503,92.317 70,101.5C 67.4126,106.068 63.5792,107.568 58.5,106C 50.5548,100.17 50.5548,94.3363 58.5,88.5 Z M 141.5,88.5 C 150.66,89.139 154.16,93.8056 152,102.5C 146.625,109.101 141.292,109.101 136,102.5C 133.821,96.1978 135.654,91.5312 141.5,88.5 Z M 225.5,88.5 C 234.957,91.0476 237.291,96.5476 232.5,105C 224.385,109.072 219.052,106.738 216.5,98C 217.719,92.9519 220.719,89.7853 225.5,88.5 Z M 16.5,165.5 C 175.833,165.5 335.167,165.5 494.5,165.5C 494.667,252.167 494.5,338.834 494,425.5C 491.033,448.8 477.866,461.634 454.5,464C 321.833,464.667 189.167,464.667 56.5,464C 33.1338,461.634 19.9671,448.8 17,425.5C 16.5,338.834 16.3333,252.167 16.5,165.5 Z"/></g>
<g><path style="opacity:0.937" fill="#f5f6f5" d="M 55.5,70.5 C 71.6781,68.6651 82.5114,75.3317 88,90.5C 89.9905,114.176 79.1572,125.342 55.5,124C 40.2654,119.043 33.4321,108.543 35,92.5C 37.6006,81.0706 44.4339,73.7373 55.5,70.5 Z M 58.5,88.5 C 50.5548,94.3363 50.5548,100.17 58.5,106C 63.5792,107.568 67.4126,106.068 70,101.5C 71.6503,92.317 67.817,87.9836 58.5,88.5 Z"/></g>
<g><path style="opacity:0.933" fill="#f5f6f5" d="M 139.5,70.5 C 158.115,70.1176 168.782,79.1176 171.5,97.5C 169.896,114.27 160.73,123.604 144,125.5C 127.46,123.627 118.293,114.46 116.5,98C 117.89,83.4531 125.557,74.2864 139.5,70.5 Z M 141.5,88.5 C 135.654,91.5312 133.821,96.1978 136,102.5C 141.292,109.101 146.625,109.101 152,102.5C 154.16,93.8056 150.66,89.139 141.5,88.5 Z"/></g>
<g><path style="opacity:0.935" fill="#f5f6f5" d="M 224.5,70.5 C 241.832,71.6669 251.499,80.8336 253.5,98C 250.437,119.065 238.437,127.732 217.5,124C 201.55,116.598 196.05,104.431 201,87.5C 205.938,77.7157 213.771,72.049 224.5,70.5 Z M 225.5,88.5 C 220.719,89.7853 217.719,92.9519 216.5,98C 219.052,106.738 224.385,109.072 232.5,105C 237.291,96.5476 234.957,91.0476 225.5,88.5 Z"/></g>
<g><path style="opacity:0.935" fill="#f5f6f5" d="M 266.5,214.5 C 277.153,214.006 280.987,219.006 278,229.5C 267,281.833 256,334.167 245,386.5C 242.897,392.469 238.73,394.636 232.5,393C 230.333,392.167 228.833,390.667 228,388.5C 227.333,385.5 227.333,382.5 228,379.5C 239.042,325.335 250.709,271.335 263,217.5C 264.145,216.364 265.312,215.364 266.5,214.5 Z"/></g>
<g><path style="opacity:0.924" fill="#f5f6f5" d="M 199.5,247.5 C 208.882,248.038 212.048,252.705 209,261.5C 192.993,275.343 177.159,289.343 161.5,303.5C 177.456,316.951 193.289,330.617 209,344.5C 211.959,352.256 209.459,356.922 201.5,358.5C 198.771,358.705 196.438,357.872 194.5,356C 176.833,341 159.167,326 141.5,311C 136.201,304.152 137.201,298.152 144.5,293C 162.535,277.338 180.869,262.171 199.5,247.5 Z"/></g>
<g><path style="opacity:0.924" fill="#f5f6f5" d="M 307.5,247.5 C 311.604,247.884 315.271,249.384 318.5,252C 336.614,267.146 354.447,282.646 372,298.5C 373.909,303.133 373.076,307.299 369.5,311C 351.833,326 334.167,341 316.5,356C 308.464,360.845 303.13,358.845 300.5,350C 300.796,348.112 301.296,346.278 302,344.5C 317.711,330.617 333.544,316.951 349.5,303.5C 333.841,289.343 318.007,275.343 302,261.5C 299.143,254.892 300.977,250.225 307.5,247.5 Z"/></g>
</svg>
